<svg width="30px" height="20px" viewBox="0 0 30 20" fill="none" xmlns="http://www.w3.org/2000/svg">
<path fill-rule="evenodd" clip-rule="evenodd" d="M18.4375 15.6248C18.1889 15.6248 17.9504 15.526 17.7746 15.3502C17.5988 15.1744 17.5 14.9359 17.5 14.6873V13.1248C17.5 12.7796 17.2202 12.4998 16.875 12.4998C16.5298 12.4998 16.25 12.7796 16.25 13.1248V14.6873C16.25 15.2674 16.4805 15.8238 16.8907 16.2341C17.3009 16.6443 17.8573 16.8748 18.4375 16.8748H26.5625C27.1427 16.8748 27.6991 16.6443 28.1093 16.2341C28.5195 15.8238 28.75 15.2674 28.75 14.6873V5.31226C28.75 4.7321 28.5195 4.1757 28.1093 3.76546C27.6991 3.35523 27.1427 3.12476 26.5625 3.12476H18.4375C17.8573 3.12476 17.3009 3.35523 16.8907 3.76546C16.4805 4.1757 16.25 4.7321 16.25 5.31226V6.87476C16.25 7.21994 16.5298 7.49976 16.875 7.49976C17.2202 7.49976 17.5 7.21994 17.5 6.87476V5.31226C17.5 5.06362 17.5988 4.82516 17.7746 4.64935C17.9504 4.47353 18.1889 4.37476 18.4375 4.37476H26.5625C26.8111 4.37476 27.0496 4.47353 27.2254 4.64935C27.4012 4.82516 27.5 5.06362 27.5 5.31226V14.6873C27.5 14.9359 27.4012 15.1744 27.2254 15.3502C27.0496 15.526 26.8111 15.6248 26.5625 15.6248H18.4375Z" fill="#008CC3"/>
<path fill-rule="evenodd" clip-rule="evenodd" d="M20.1831 6.43306C20.4272 6.18898 20.8229 6.18898 21.067 6.43306L24.192 9.55806C24.4361 9.80214 24.4361 10.1979 24.192 10.4419L21.067 13.5669C20.8229 13.811 20.4272 13.811 20.1831 13.5669C19.939 13.3229 19.939 12.9271 20.1831 12.6831L22.8662 10L20.1831 7.31694C19.939 7.07286 19.939 6.67714 20.1831 6.43306Z" fill="#008CC3"/>
<path fill-rule="evenodd" clip-rule="evenodd" d="M11.25 9.99983C11.25 9.65465 11.5298 9.37483 11.875 9.37483H23.125C23.4702 9.37483 23.75 9.65465 23.75 9.99983C23.75 10.345 23.4702 10.6248 23.125 10.6248H11.875C11.5298 10.6248 11.25 10.345 11.25 9.99983Z" fill="#008CC3"/>
</svg>
