<svg width="24" height="24" viewBox="0 0 24 24" fill="none" xmlns="http://www.w3.org/2000/svg">
<path fill-rule="evenodd" clip-rule="evenodd" d="M10.136 2.55305C8.57118 2.55305 7.0415 3.01708 5.7404 3.88645C4.4393 4.75582 3.42521 5.99148 2.82638 7.43719C2.22755 8.88289 2.07087 10.4737 2.37615 12.0085C2.68143 13.5432 3.43496 14.953 4.54146 16.0595C5.64796 17.166 7.05772 17.9195 8.59247 18.2248C10.1272 18.5301 11.718 18.3734 13.1637 17.7746C13.9005 17.4694 14.5827 17.0563 15.1897 16.5524L19.9907 21.3534C20.2764 21.639 20.7394 21.639 21.025 21.3534C21.3106 21.0678 21.3106 20.6047 21.025 20.3191L16.224 15.5181C16.3982 15.3082 16.562 15.0888 16.7145 14.8605C17.5839 13.5594 18.0479 12.0297 18.0479 10.4649C18.0477 8.36658 17.2141 6.35425 15.7304 4.87052C14.2467 3.3868 12.2343 2.55319 10.136 2.55305ZM14.6961 5.90481C13.4867 4.69539 11.8464 4.01588 10.136 4.01576C8.86049 4.01577 7.61358 4.39401 6.55304 5.10264C5.49248 5.81129 4.66587 6.81851 4.17775 7.99694C3.68962 9.17537 3.56191 10.4721 3.81075 11.7231C4.05959 12.9741 4.67382 14.1233 5.57575 15.0252C6.47768 15.9271 7.62682 16.5413 8.87783 16.7902C10.1288 17.039 11.4256 16.9113 12.604 16.4232C13.7824 15.9351 14.7896 15.1085 15.4983 14.0479C16.2069 12.9874 16.5852 11.7404 16.5852 10.4649C16.5851 8.75454 15.9056 7.11424 14.6961 5.90481Z" fill="#272733"/>
</svg>