<svg viewBox="0 0 36 36" xmlns="http://www.w3.org/2000/svg">
    <path d="M19.1143 4.84355C20.2674 3.44082 22.2361 2.36644 23.9236 2.25183C24.2105 4.17066 23.4258 6.04097 22.3908 7.36074C21.3164 8.7473 19.4771 9.82941 17.6799 9.82941H17.5449C17.2074 8.00058 18.068 6.1148 19.1143 4.84355Z"/>
    <path d="M20.9802 10.3886C21.9437 10.0229 23.0027 9.62091 24.5481 9.62091L24.541 9.62372C26.6835 9.62372 28.956 10.7965 30.5731 12.8215C25.2751 15.7332 26.1357 23.3276 31.4928 25.3611C30.7616 27.0029 30.4072 27.7313 29.4538 29.1826C28.1291 31.2005 26.2651 33.7177 23.9448 33.7423H23.9026C22.9758 33.7423 22.3599 33.4594 21.6967 33.1547C20.9228 32.7992 20.0844 32.4141 18.6123 32.4141H18.5701C17.0763 32.4224 16.2129 32.8089 15.4197 33.164C14.7392 33.4685 14.1103 33.7501 13.1792 33.7501H13.137C10.8167 33.7254 9.04768 31.4536 7.72299 29.4279C4.01963 23.7692 3.63151 17.1268 5.91807 13.5999C7.5465 11.0989 10.1108 9.63076 12.5155 9.63076C13.8033 9.63076 14.8403 9.99976 15.8271 10.3509C16.7229 10.6697 17.5774 10.9737 18.5406 10.9737C19.4387 10.9737 20.1762 10.6938 20.9802 10.3886Z"/>
</svg>
