<svg xmlns="http://www.w3.org/2000/svg"  viewBox="0 0 50 50" width="500px" height="500px"><path d="M 25 2 A 1.0001 1.0001 0 0 0 24.900391 2.0039062 C 21.285234 2.0210475 18.620219 2.9370882 16.859375 3.8769531 C 15.43929 4.6349349 14.995596 5.1633388 14.701172 5.4589844 C 14.160143 5.2444598 13.626863 5 13 5 C 10.250484 5 8 7.2504839 8 10 C 8 12.027769 9.2527379 13.718387 11 14.498047 L 11 23.878906 L 8.4394531 26.439453 C 7.8534531 27.025453 7.8534531 27.974547 8.4394531 28.560547 C 8.7324531 28.853547 9.116 29 9.5 29 C 9.884 29 10.267547 28.853547 10.560547 28.560547 L 10.734375 28.386719 C 10.66368 28.840843 10.598077 29.291565 10.515625 29.765625 C 10.263111 31.217455 10 32.944444 10 36 C 10 38.837522 11.348366 41.780513 13.835938 44.042969 L 12.439453 45.439453 C 11.853453 46.025453 11.853453 46.974547 12.439453 47.560547 C 12.732453 47.853547 13.116 48 13.5 48 C 13.884 48 14.268547 47.853547 14.560547 47.560547 L 16.298828 45.822266 C 18.610492 47.147193 21.502855 47.981731 24.912109 47.996094 A 1.0001 1.0001 0 0 0 24.929688 47.998047 C 24.953693 47.998128 24.975945 48 25 48 A 1.0001 1.0001 0 0 0 25.101562 47.996094 C 28.504777 47.979528 31.392614 47.145398 33.701172 45.822266 L 35.439453 47.560547 C 35.731453 47.853547 36.116 48 36.5 48 C 36.884 48 37.267547 47.853547 37.560547 47.560547 C 38.146547 46.974547 38.146547 46.025453 37.560547 45.439453 L 36.162109 44.041016 C 38.64872 41.778739 40 38.836906 40 36 C 40 32.944444 39.736889 31.217455 39.484375 29.765625 C 39.401923 29.291565 39.33632 28.840843 39.265625 28.386719 L 39.439453 28.560547 C 39.732453 28.853547 40.116 29 40.5 29 C 40.884 29 41.267547 28.853547 41.560547 28.560547 C 42.146547 27.974547 42.146547 27.025453 41.560547 26.439453 L 39 23.878906 L 39 14.498047 C 40.747262 13.718387 42 12.027769 42 10 C 42 7.2504839 39.749516 5 37 5 C 36.373137 5 35.839857 5.2444598 35.298828 5.4589844 C 35.004404 5.1633388 34.56071 4.6349349 33.140625 3.8769531 C 31.374881 2.9344731 28.700848 2.0140986 25.070312 2.0019531 A 1.0001 1.0001 0 0 0 25 2 z M 25 4 C 28.332476 4 30.681207 4.8303737 32.199219 5.640625 C 33.717231 6.4508763 34.339844 7.1777344 34.339844 7.1777344 A 1.0001 1.0001 0 0 0 35.585938 7.3867188 C 36.018157 7.1403918 36.487934 7 37 7 C 38.668484 7 40 8.3315161 40 10 C 40 11.405144 39.043053 12.562721 37.75 12.896484 A 1.0001 1.0001 0 0 0 37 13.863281 L 37 25 C 37 27.324558 37.268139 28.686455 37.515625 30.109375 C 37.763111 31.532295 38 33.055556 38 36 C 38 40.47234 33.564667 46 25 46 C 16.435333 46 12 40.47234 12 36 C 12 33.055556 12.236889 31.532295 12.484375 30.109375 C 12.731861 28.686455 13 27.324558 13 25 L 13 13.863281 A 1.0001 1.0001 0 0 0 12.25 12.896484 C 10.956947 12.562721 10 11.405144 10 10 C 10 8.3315161 11.331516 7 13 7 C 13.512066 7 13.981845 7.1403919 14.414062 7.3867188 A 1.0001 1.0001 0 0 0 15.660156 7.1777344 C 15.660156 7.1777344 16.282769 6.4508763 17.800781 5.640625 C 19.318793 4.8303737 21.667524 4 25 4 z M 19.5 8 C 17.026563 8 15 10.026563 15 12.5 C 15 14.973437 17.026563 17 19.5 17 C 21.973437 17 24 14.973437 24 12.5 C 24 10.026563 21.973437 8 19.5 8 z M 30.498047 8.0019531 C 28.025162 8.0019525 26 10.027115 26 12.5 C 26 14.972885 28.025162 16.998048 30.498047 16.998047 C 32.970931 16.998047 34.998047 14.972884 34.998047 12.5 C 34.998047 10.027116 32.970931 8.0019532 30.498047 8.0019531 z M 13 9 C 12.448 9 12 9.448 12 10 C 12 10.552 12.448 11 13 11 C 13.068 11 13.127406 10.973937 13.191406 10.960938 C 13.325406 10.413937 13.522156 9.89025 13.785156 9.40625 C 13.602156 9.16525 13.326 9 13 9 z M 37 9 C 36.674 9 36.397844 9.16525 36.214844 9.40625 C 36.477844 9.89025 36.674594 10.413937 36.808594 10.960938 C 36.872594 10.973937 36.932 11 37 11 C 37.552 11 38 10.552 38 10 C 38 9.448 37.552 9 37 9 z M 19.5 10 C 20.892557 10 22 11.107443 22 12.5 C 22 13.892557 20.892557 15 19.5 15 C 18.67558 15 17.95784 14.605658 17.503906 14 A 1.5 1.5 0 0 0 19 12.5 A 1.5 1.5 0 0 0 17.503906 11 C 17.95784 10.394342 18.67558 10 19.5 10 z M 30.498047 10.001953 C 31.890051 10.001953 32.998047 11.107996 32.998047 12.5 C 32.998047 13.892004 31.890051 14.998047 30.498047 14.998047 C 29.674073 14.998047 28.957398 14.604992 28.503906 14 A 1.5 1.5 0 0 0 30 12.5 A 1.5 1.5 0 0 0 28.503906 11 C 28.957398 10.395008 29.674073 10.001953 30.498047 10.001953 z M 25 16 A 3 2 0 0 0 22.066406 17.585938 C 21.764683 17.772108 21.478752 17.982186 21.230469 18.230469 C 20.510834 18.950104 20 19.916667 20 21 C 20 21.25 20.05764 22.253314 20.841797 22.939453 C 21.333381 23.36959 22.041745 23.660401 23 23.830078 L 23 25 A 1.0001 1.0001 0 1 0 25 25 A 1.0001 1.0001 0 1 0 27 25 L 27 23.830078 C 27.958255 23.660401 28.666619 23.36959 29.158203 22.939453 C 29.942362 22.253314 30 21.25 30 21 C 30 19.916667 29.489166 18.950104 28.769531 18.230469 C 28.520854 17.981792 28.233919 17.772285 27.931641 17.585938 A 3 2 0 0 0 25 16 z M 22.904297 19.427734 A 3 2 0 0 0 25 20 A 3 2 0 0 0 27.097656 19.429688 C 27.186252 19.496459 27.275043 19.564106 27.355469 19.644531 C 27.760834 20.049896 28 20.583333 28 21 C 28 21.25 28.05764 21.246686 27.841797 21.435547 C 27.625956 21.624408 26.875 22 25 22 C 23.125 22 22.374044 21.624408 22.158203 21.435547 C 21.942362 21.246686 22 21.25 22 21 C 22 20.583333 22.239166 20.049896 22.644531 19.644531 C 22.725616 19.563447 22.814923 19.494935 22.904297 19.427734 z"/></svg>