<svg viewBox="0 0 36 36" xmlns="http://www.w3.org/2000/svg">
  <defs/>
  <path d="M19.08 11.019l.065-.035a6.037 6.037 0 001.035-.726c.27-.236.412-.442.22-.464-.111-.013-.155.05-.218.138a.85.85 0 01-.2.217l-.21.157c-.256.19-.533.399-.762.527-.519.29-1.368.718-2.095.718-.73 0-1.311-.337-1.748-.682a7.448 7.448 0 01-.484-.428l-.058-.055a.542.542 0 01-.096-.143c-.049-.093-.098-.186-.205-.2-.1-.007-.13.264.115.458l.062.057c.133.125.3.282.498.44.461.365 1.103.74 1.916.74.785 0 1.525-.386 2.165-.72z"/>
  <path fill-rule="evenodd" clip-rule="evenodd" d="M31.732 28.38l-.001-.002c-.253-.285-.373-.81-.503-1.373l-.002-.01c-.13-.565-.275-1.175-.739-1.57l-.001-.001-.001-.001a1.932 1.932 0 00-.57-.344c.645-1.913.392-3.819-.26-5.54-.799-2.113-2.194-3.954-3.26-5.213l-.047-.06-.023-.028c-1.168-1.473-2.289-2.887-2.266-4.955l.005-.397c.046-3.289.123-8.795-5.318-8.802-.23 0-.47.009-.72.029-5.3.427-4.988 5.183-4.8 8.035.036.556.068 1.04.053 1.404-.116 1.639-.448 2.93-1.575 4.531-1.323 1.574-3.187 4.121-4.07 6.774-.416 1.251-.615 2.527-.432 3.734a2.816 2.816 0 00-.164.16c-.202.216-.376.456-.542.683-.153.21-.3.411-.453.574-.255.254-.602.374-.99.508l-.203.071c-.468.168-.982.416-1.294 1.015l-.002.003c-.147.274-.195.57-.195.87 0 .276.041.557.083.828l.008.055c.083.542.161 1.052.05 1.4-.371 1.014-.419 1.714-.158 2.222.262.51.8.734 1.407.861.384.08.81.129 1.256.18.964.109 2.014.228 2.9.698 1.389.726 2.797.984 3.92.728.815-.186 1.475-.67 1.815-1.417.411-.002.841-.084 1.34-.18.568-.11 1.225-.236 2.045-.28.492-.04 1.041.039 1.641.126.678.098 1.421.206 2.22.162.039.163.096.32.174.47l.001.001.001.002c.583 1.167 1.667 1.7 2.822 1.61 1.157-.092 2.387-.774 3.381-1.957l-.182-.153.183.152c.668-.81 1.645-1.285 2.529-1.715.371-.18.726-.354 1.034-.54.522-.314.945-.708.978-1.28.032-.571-.304-1.212-1.076-2.069zM21.303 7.317a2.7 2.7 0 01-.23 1.148c-.091.21-.196.385-.322.537a10.582 10.582 0 00-.822-.324c-.02-.008-.043-.015-.064-.022a1.22 1.22 0 01.087-.09c.07-.069.15-.146.186-.236.082-.199.122-.393.13-.624v-.012a1.728 1.728 0 00-.088-.62 1.118 1.118 0 00-.277-.472.572.572 0 00-.4-.182h-.02a.586.586 0 00-.39.154c-.132.11-.23.252-.312.45a1.734 1.734 0 00-.13.625l-.001.026c-.003.128.005.245.025.359a4.55 4.55 0 00-.91-.309 3.084 3.084 0 01-.025-.342v-.032c-.005-.42.064-.781.226-1.148.162-.366.362-.63.644-.844.282-.214.559-.312.887-.316h.016c.32 0 .596.095.878.3.286.207.493.467.66.831.162.355.24.701.249 1.112 0 .011 0 .02.003.031zm-.073 2.453c-.11-.215-.335-.42-.717-.577h-.002c-.327-.14-.578-.227-.79-.3-.305-.106-.532-.184-.793-.354-.722-.464-1.319-.627-1.815-.625-.26.001-.492.047-.7.12-.539.185-.916.55-1.17.796-.03.03-.059.057-.086.082v.002a1.743 1.743 0 01-.17.131l-.002.001-.095.07c-.156.113-.388.284-.723.535-.297.223-.393.513-.29.853.102.34.43.732 1.03 1.071l.001.001c.246.145.44.322.628.494.097.088.191.175.29.254.146.117.3.222.485.3.184.08.4.133.67.15.634.036 1.1-.154 1.513-.39.135-.077.264-.16.39-.241.257-.166.503-.325.773-.412l.002-.001c.822-.257 1.408-.774 1.591-1.265.092-.246.09-.48-.02-.695zm11.1 20.65c-.02.353-.276.615-.748.9-.264.159-.585.312-.934.479-.898.429-1.98.946-2.749 1.878-.927 1.103-2.058 1.709-3.053 1.788-.996.078-1.855-.335-2.361-1.351l-.001-.002-.001-.003c-.315-.598-.184-1.54.08-2.536.076-.282.16-.566.243-.847.212-.711.417-1.404.454-2v-.002c.053-1.064.113-1.993.292-2.71.179-.717.46-1.202.958-1.475a2.1 2.1 0 01.07-.036c.056.921.512 1.861 1.319 2.064.882.233 2.153-.524 2.69-1.141l.045-.002.057-.003.212-.008c.471-.01.866.016 1.27.37l.002.001c.31.263.458.76.586 1.316l.04.174c.112.506.23 1.033.574 1.42v.002c.738.818.975 1.37.955 1.724zm-17.928 2.61v-.002c.066-.655-.438-1.512-1.09-2.365-.18-.236-.368-.47-.555-.701-.49-.608-.966-1.199-1.23-1.75l-.001-.002-1.37-2.495c-.473-.643-.965-1.037-1.53-1.123a1.613 1.613 0 00-.237-.02l-.006.001H8.375c-.425.002-.707.202-.989.503-.16.17-.309.375-.462.586-.167.229-.34.466-.538.675l-.002.002-.002.002c-.346.347-.77.49-1.157.62l-.214.073c-.44.158-.793.324-1.034.79l-.002.002c-.188.35-.147.852-.063 1.404l.031.194c.08.494.163 1.008.009 1.483l-.002.004-.001.004c-.352.96-.348 1.524-.183 1.847.166.323.527.497 1.08.612.332.07.72.111 1.138.156.978.105 2.128.229 3.144.767 1.31.685 2.624.906 3.591.685.969-.221 1.6-.83 1.684-1.948v-.003zM29.16 24.94a4.417 4.417 0 00-.267-.001h-.024c.224-.709-.272-1.232-1.596-1.83-1.373-.605-2.467-.545-2.651.68-.012.064-.022.13-.029.196a2.074 2.074 0 00-.31.137c-.644.353-.996.993-1.191 1.778-.196.785-.252 1.733-.306 2.798-.03.499-.223 1.161-.43 1.87l-.047.16c-2.248 1.604-5.37 2.299-8.02.49-.178-.284-.385-.565-.597-.843a37.33 37.33 0 00-.412-.527c.271 0 .503-.044.69-.129a.874.874 0 00.476-.492c.162-.434 0-1.047-.518-1.748-.517-.7-1.393-1.49-2.68-2.279-.946-.588-1.474-1.31-1.722-2.092-.248-.783-.213-1.63-.022-2.466.366-1.604 1.307-3.165 1.908-4.144.161-.119.057.22-.608 1.457-.597 1.13-1.712 3.737-.185 5.773.04-1.449.387-2.926.967-4.308.144-.325.314-.69.497-1.086.902-1.939 2.142-4.606 2.259-6.806.073.052.321.22.432.284.208.122.383.28.565.446.102.092.206.187.32.278.316.254.711.474 1.309.508.057.004.113.005.168.005.615 0 1.095-.2 1.495-.429.15-.085.289-.174.42-.258.251-.16.475-.302.69-.372.696-.218 1.25-.603 1.564-1.051.54 2.129 1.796 5.204 2.603 6.705.43.796 1.284 2.488 1.652 4.526a2.78 2.78 0 01.767.097c.965-2.5-.818-5.194-1.633-5.944-.33-.32-.345-.462-.181-.455.883.782 2.044 2.354 2.467 4.13.193.81.233 1.66.027 2.5.1.042.204.088.308.137 1.548.754 2.12 1.41 1.845 2.304zM16.326 7.776l.124-.038a2.89 2.89 0 00.004-.436V7.3a2.714 2.714 0 00-.228-.98c-.136-.308-.298-.527-.512-.698a.931.931 0 00-.656-.228c-.236.012-.431.11-.625.302-.195.192-.329.427-.429.75-.1.324-.135.637-.115 1v.003c.022.364.094.672.23.98.114.26.245.458.412.615l.199-.146a5.8 5.8 0 00.168-.129l.095-.074a.941.941 0 01-.299-.402 1.628 1.628 0 01-.121-.494v-.011l-.002-.01a1.61 1.61 0 01.034-.528.957.957 0 01.18-.4c.085-.103.175-.156.283-.165l.03-.001c.095-.001.182.035.274.115a.95.95 0 01.248.364 1.67 1.67 0 01.124.514c.013.138.01.262-.007.384.177-.116.36-.204.59-.284z"/>
</svg>
