<svg xmlns="http://www.w3.org/2000/svg" fill="none" viewBox="0 0 280 153">
  <defs/>
  <path fill="#E9F6FF" d="M214.102 27.632h-1.982c-4.624-12.281-16.516-21.053-30.39-21.053-9.91 0-18.939 4.386-24.884 11.623C147.596 7.018 133.723 0 118.087 0 95.625 0 76.466 14.912 70.3 35.307 47.838 37.281 30 56.14 30 79.167c0 24.342 19.82 44.079 44.264 44.079 5.065 0 9.69-.878 14.094-2.413C95.625 137.939 112.582 150 132.4 150c16.296 0 30.831-8.114 39.419-20.614 5.946 4.605 13.213 7.237 21.141 7.237 19.159 0 34.575-15.351 34.575-34.43 0-1.754-.221-3.728-.441-5.483 13.433-5.263 22.903-18.201 22.903-33.552.22-19.518-15.856-35.526-35.896-35.526z"/>
  <path fill="url(#paint0_linear)" d="M172.84 75.168a31.285 31.285 0 00-.021-6.536h12.869c3.096 0 5.676-2.58 5.676-5.676V54.5h6.364v8.456c0 6.708-5.504 12.212-12.212 12.212H172.84z" style="mix-blend-mode:multiply"/>
  <path fill="url(#paint1_linear)" d="M138.56 102.811a31.255 31.255 0 006.708.019v13.618c0 3.096 2.58 5.676 5.676 5.676H163v6.536h-12.228c-6.708 0-12.212-5.504-12.212-12.212v-13.637z" style="mix-blend-mode:multiply"/>
  <path fill="url(#paint2_linear)" d="M111.16 75.168H98.14c-3.096 0-5.676 2.58-5.676 5.676V89.5H86.1v-8.828c0-6.708 5.504-12.212 12.212-12.212H111.2a31.347 31.347 0 00-.04 6.708z" style="mix-blend-mode:multiply"/>
  <path fill="#1ABCFE" d="M108.945 39.904c-2.767 0-5.02 2.27-5.02 5.058s2.253 5.058 5.02 5.058c2.768 0 5.02-2.27 5.02-5.058 0-2.789-2.25-5.058-5.02-5.058zm0 8.988c-2.152 0-3.9-1.764-3.9-3.93 0-2.166 1.748-3.93 3.9-3.93s3.9 1.764 3.9 3.93c0 2.166-1.748 3.93-3.9 3.93z"/>
  <path fill="#1ABCFE" d="M110.862 40.868c-2.767 0-5.019 2.27-5.019 5.058s2.252 5.058 5.019 5.058c2.768 0 5.02-2.27 5.02-5.058s-2.25-5.058-5.02-5.058z" opacity=".1"/>
  <path fill="#003380" d="M127.82 130.054l2.216-4.53 4.964-.726-3.591-3.526.848-4.979-4.435 2.35-4.438-2.35.846 4.979-3.589 3.526 4.957.726 2.222 4.53zm-2.389-8.387l-.562-3.312 2.951 1.563 2.948-1.561-.564 3.312 2.389 2.346-3.302.483-1.474 3.012-1.477-3.012-3.299-.483 2.39-2.348z"/>
  <path fill="#F24E1E" d="M100.76 26.293l2.262-6.997h7.322l-5.919-4.326 2.26-6.995-5.925 4.324-5.922-4.324 2.26 6.995-5.92 4.323H98.5l2.26 7z" opacity=".1"/>
  <path fill="#F24E1E" d="M98.773 24.604l2.019-6.265h6.536l-5.284-3.874 2.017-6.263-5.288 3.872-5.287-3.872 2.018 6.263-5.284 3.871h6.535l2.018 6.268zm-1.953-9.708l-1.204-3.74 3.157 2.312 3.159-2.313-1.205 3.741 3.16 2.315H99.98l-1.207 3.74-1.205-3.74h-3.907l3.16-2.315z"/>
  <path fill="#0D5F80" d="M162.065 28.322c0-2.222-1.794-4.03-3.999-4.03-2.206 0-3.999 1.808-3.999 4.03 0 2.222 1.793 4.03 3.999 4.03 2.205 0 3.999-1.808 3.999-4.03z" opacity=".2"/>
  <path fill="#0D5F80" d="M161.061 26.322c0-2.222-1.794-4.03-3.999-4.03s-3.999 1.808-3.999 4.03c0 2.222 1.794 4.03 3.999 4.03s3.999-1.808 3.999-4.03zm-3.999 2.901c-1.588 0-2.879-1.302-2.879-2.901 0-1.6 1.291-2.901 2.879-2.901 1.587 0 2.879 1.301 2.879 2.9 0 1.6-1.292 2.902-2.879 2.902z"/>
  <path fill="#00C05B" d="M80.594 65.279c.243.598-.12 1.087-.714 1.331l-1.793.49c-.486.121-1.079-.246-1.2-.734-.122-.612.242-1.087.714-1.332l1.794-.489c.606-.122 1.078.244 1.2.734zM76.171 70.265L75.7 68.43c-.121-.476.23-1.087.715-1.21.594-.122 1.08.245 1.187.734l.486 1.82c.243.49-.121 1.101-.729 1.224-.472.109-1.065-.122-1.187-.734zM75.579 66.732c.229.49-.122 1.1-.728 1.223l-1.78.476c-.607.136-1.08-.109-1.2-.72-.243-.49.121-1.1.714-1.224l1.794-.489c.472-.244 1.078.123 1.2.734zM76.296 62.725l.472 1.698c.121.611-.23 1.223-.715 1.331-.594.122-1.08-.231-1.308-.72l-.365-1.712a.971.971 0 01.715-1.33c.486-.124 1.08.243 1.2.733zM222.114 59.885c.334.822-.167 1.494-.983 1.83l-2.466.673c-.667.168-1.483-.337-1.651-1.009-.166-.84.334-1.494.984-1.83l2.466-.673c.834-.168 1.483.335 1.65 1.009zM216.033 66.74l-.649-2.521c-.167-.655.315-1.494.983-1.663.817-.168 1.484.336 1.633 1.008l.667 2.504c.334.673-.166 1.514-1.002 1.682-.649.15-1.465-.168-1.632-1.01zM215.217 61.883c.315.673-.167 1.514-1.001 1.681l-2.448.655c-.834.187-1.483-.15-1.649-.99-.335-.673.166-1.513.982-1.682l2.466-.673c.649-.335 1.483.169 1.65 1.01zM216.203 56.373l.649 2.335c.167.84-.315 1.682-.983 1.831-.817.168-1.484-.318-1.799-.99l-.501-2.354c-.334-.822.167-1.663.983-1.831.668-.17 1.484.335 1.651 1.009z"/>
  <path fill="#F5A623" d="M207.679 90.01l-3.989 11.936-7.991-7.961 11.98-3.975z" opacity=".2"/>
  <path fill="#F5A623" d="M206.969 87.889l-3.989 11.935-7.991-7.96 11.98-3.975z"/>
  <path fill="#FA7360" d="M101.07 102v.025c.206.042.404.136.573.284l10 8.75a1.25 1.25 0 010 1.882l-10 8.75a1.244 1.244 0 01-.573.284V122H85v-.025a1.247 1.247 0 01-.573-.284l-10-8.75a1.252 1.252 0 010-1.882l10-8.75c.17-.148.367-.242.573-.284V102h16.07z" opacity=".3"/>
  <path fill="#F24E1E" d="M83.66 97.402a1.25 1.25 0 01-.118 1.764l-8.925 7.809 8.925 7.809a1.25 1.25 0 01-1.647 1.882l-10-8.75a1.25 1.25 0 010-1.882l10-8.75a1.25 1.25 0 011.764.118zM96.778 97.402a1.25 1.25 0 011.764-.118l10 8.75a1.253 1.253 0 010 1.882l-10 8.75a1.25 1.25 0 01-1.647-1.882l8.925-7.809-8.925-7.81a1.25 1.25 0 01-.117-1.763z"/>
  <path fill="#73250E" d="M95.166 94.834a1.25 1.25 0 10-2.395-.719l-7.5 25a1.25 1.25 0 102.395.719l7.5-25z"/>
  <path fill="#F8C369" fill-rule="evenodd" d="M178.469 117.477a4.998 4.998 0 00-5 5v25a4.996 4.996 0 005 5h17.499a5 5 0 005-5v-15.215c0-.995-.395-1.948-1.098-2.651l-11.036-11.036a3.748 3.748 0 00-2.651-1.098h-7.714z" clip-rule="evenodd" opacity=".3"/>
  <path fill="#F5A623" fill-rule="evenodd" d="M173.469 110.477a4.998 4.998 0 00-5 5v25a4.996 4.996 0 005 5h17.499a5 5 0 005-5v-15.215c0-.995-.395-1.948-1.098-2.651l-11.036-11.036a3.748 3.748 0 00-2.651-1.098h-7.714zm-1.768 3.232a2.498 2.498 0 011.768-.732h7.714c.332 0 .649.131.884.366l11.036 11.036c.234.234.365.552.366.883v15.215a2.5 2.5 0 01-2.501 2.5h-17.499a2.5 2.5 0 01-2.5-2.5v-25a2.5 2.5 0 01.732-1.768z" clip-rule="evenodd"/>
  <path fill="#F5A623" fill-rule="evenodd" d="M182.219 111.102c.69 0 1.25.559 1.25 1.25v9.375a1.25 1.25 0 001.25 1.25h9.375a1.25 1.25 0 110 2.5h-9.375a3.747 3.747 0 01-3.75-3.75v-9.375c0-.691.559-1.25 1.25-1.25zM174.718 130.477c0-.691.56-1.25 1.25-1.25h12.5a1.25 1.25 0 110 2.5h-12.5c-.69 0-1.25-.56-1.25-1.25zM174.718 136.727c0-.69.56-1.25 1.25-1.25h12.5a1.25 1.25 0 110 2.5h-12.5c-.69 0-1.25-.56-1.25-1.25z" clip-rule="evenodd"/>
  <mask id="a" width="50" height="50" x="117" y="47" maskUnits="userSpaceOnUse">
    <path fill="#ffffff" d="M142 97c13.807 0 25-11.193 25-25s-11.193-25-25-25-25 11.193-25 25 11.193 25 25 25z"/>
  </mask>
  <g mask="url(#a)">
    <path fill="#F7F7FA" fill-rule="evenodd" d="M142 97c-13.379 0-25-11.62-25-25s11.621-25 25-25" clip-rule="evenodd"/>
    <path fill="#CFDDE0" fill-rule="evenodd" d="M142 47c13.379 0 25 11.62 25 25s-11.621 25-25 25" clip-rule="evenodd"/>
    <path fill="#272733" d="M155.75 69.125c0 4.679-2.75 36.051-5 40.364 0 0-1.768 1.636-3.938 1.636-1.533 0-3.267-1.25-4.718-1.25-1.549 0-3.482 1.25-5.156 1.25-2.112 0-3.813-1.636-3.813-1.636-2.5-4.688-4.875-33.902-4.875-40.364 0-8.25 6.785-12.375 13.75-12.375s13.75 4.125 13.75 12.375z"/>
    <path fill="#272733" d="M176.375 100.538c-10.743-8.576-14.106-24.205-17.405-24.205-3.298 0-4.749 1.805-6.543 3.278-1.794 1.473-5.014 5.191-3.381 10.508 1.633 5.317 7.117 6.178 7.117 6.178-1.391-1.668-1.946-5.466-1.946-5.466 1.364 5.307 7.102 6.824 7.102 6.824-2.025-2.375-3.264-7.205-3.264-7.205 3.921 8.843 10.01 8.79 10.01 8.79-3.035-2.842-5.796-9.242-5.796-9.242 4.397 8.074 14.106 10.54 14.106 10.54zM121.607 90.36s-2.762 6.4-5.796 9.242c0 0 6.089.054 10.01-8.79 0 0-1.239 4.832-3.264 7.206 0 0 5.738-1.517 7.102-6.825 0 0-.555 3.8-1.946 5.466 0 0 5.484-.86 7.117-6.177 1.633-5.317-1.588-9.035-3.382-10.508-1.793-1.473-3.245-3.278-6.543-3.278S118.243 92.325 107.5 100.9c0 0 9.709-2.466 14.107-10.54z"/>
    <path fill="#fff" d="M129.734 76.962c-.06-.116.075-.235.183-.16l11.868 8.28c.129.09.301.09.43 0l11.868-8.28c.108-.075.243.044.183.16l-11.641 22.413-.308.442a.386.386 0 01-.634 0l-.308-.442-11.641-22.413z"/>
    <path fill="#F24E1E" d="M135.75 75.54L142 79.8l-6.25 3.866V75.54z"/>
    <path fill="#DB210F" d="M142.001 79.8l6.249-4.258v8.124l-6.249-3.866z"/>
    <path fill="#754F10" d="M142.25 76.25l2.625-5.25s-1.375-1.25-2.625-1.25"/>
    <path fill="#F5A623" d="M142.25 69.75c-1.25 0-2.75 1.25-2.75 1.25l2.75 5.25"/>
    <path fill="#fff" d="M149.267 69.778c-2.085 1.177-5.881-1.562-5.881-1.562 1.056-1.04 6.411-6.254 7.547-4.262 1.164 2.04.418 4.647-1.666 5.824zM135.066 69.674c-2.066-1.207-2.774-3.825-1.58-5.847 1.166-1.977 6.442 3.318 7.483 4.372 0 0-3.837 2.682-5.903 1.475z"/>
    <circle cx="146.873" cy="67.168" r="1.418" fill="#272733"/>
    <circle cx="137.651" cy="67.168" r="1.418" fill="#272733"/>
    <path fill="#272733" d="M148.125 57.947c1.196-.837 1.949-1.997 1.75-3.609-1.93-.356-4.277 1.706-5.75 2.932-.272-.014-.725-.04-1-.04 1.998-2.225 3.888-4.884 1.75-4.907-1.61-.018-2.914 2.128-4 4.263.94-2.456 1.468-5.12-1.25-4.658-2.694.457-1.295 3.468-.5 5.79l9 .229z"/>
    <path stroke="url(#paint3_linear)" stroke-miterlimit="10" stroke-width="2.578" d="M141.976 96.202c13.379 0 24.226-10.846 24.226-24.226 0-13.38-10.847-24.226-24.226-24.226-13.38 0-24.226 10.846-24.226 24.226 0 13.38 10.846 24.226 24.226 24.226z"/>
  </g>
  <g fill="#50FF8F" opacity=".4">
    <path d="M226.701 10.284v-.007a1.578 1.578 0 00-1.166-1.178c-2.295-.56-5.905.037-9.906 1.639-4.032 1.617-7.81 4.004-10.364 6.563a24.789 24.789 0 00-2.276 2.605c-1.719-.077-3.234.168-4.51.725-4.447 1.956-5.717 6.965-6.055 9.02a1.92 1.92 0 00.495 1.636 1.92 1.92 0 001.599.598h.01l4.954-.54.018.174c.064.603.333 1.166.762 1.595l2.418 2.42c.428.43.991.699 1.595.762l.165.018-.539 4.947v.01a1.926 1.926 0 002.215 2.097c2.068-.332 7.074-1.587 9.025-6.057.552-1.268.796-2.777.728-4.493a24.195 24.195 0 002.614-2.276c2.575-2.561 4.97-6.309 6.57-10.283 1.594-3.955 2.194-7.592 1.648-9.975z"/>
    <path d="M202.401 36.189a1.232 1.232 0 00-.847.206c-.492.336-.986.669-1.485.993-1.01.656-2.218-.496-1.618-1.54l.936-1.617a1.229 1.229 0 00-.48-1.804 1.233 1.233 0 00-.687-.115 4.716 4.716 0 00-2.744 1.345c-.282.283-1.139 1.14-1.601 4.41a27.679 27.679 0 00-.248 2.831 1.237 1.237 0 00.754 1.167c.151.064.314.097.479.097h.03a27.684 27.684 0 002.834-.246c3.271-.462 4.129-1.32 4.411-1.602a4.658 4.658 0 001.339-2.753 1.23 1.23 0 00-1.073-1.372z"/>
  </g>
  <path fill="#fff" d="M221.428 15.23a3.966 3.966 0 11-7.933 0 3.966 3.966 0 017.933 0z"/>
  <path fill="#00C05B" fill-rule="evenodd" d="M223.218 4.229c1.653-.293 3.235-.358 4.519-.045a1.57 1.57 0 011.168 1.192c.301 1.323.239 2.918-.055 4.584-.298 1.686-.849 3.528-1.594 5.376-1.485 3.684-3.789 7.51-6.566 10.273a23.954 23.954 0 01-2.617 2.276c.06 1.512-.112 3.076-.728 4.49l-.001.002c-.999 2.284-2.797 3.718-4.53 4.608-1.728.888-3.465 1.276-4.495 1.442a1.927 1.927 0 01-2.222-2.095l.001-.01.543-4.946c-.055-.005-.11-.01-.165-.017a2.63 2.63 0 01-1.597-.764l-.003-.003-2.407-2.407-.004-.004a2.635 2.635 0 01-.764-1.596l-.018-.173-4.95.543-.009.001a1.925 1.925 0 01-2.096-2.225v-.002c.169-1.027.559-2.76 1.448-4.487.892-1.731 2.325-3.529 4.607-4.532l.004-.002c1.414-.617 2.987-.79 4.509-.723a23.744 23.744 0 012.274-2.608c2.77-2.768 6.655-5.071 10.363-6.555 1.861-.745 3.708-1.295 5.385-1.593zm-4.47 3.881c-3.487 1.396-7.062 3.538-9.538 6.012l-.003.003a21.405 21.405 0 00-2.41 2.847c-.254.358-.68.555-1.117.515-1.5-.135-2.888-.008-4.007.48-1.605.706-2.681 1.995-3.406 3.403-.558 1.084-.885 2.195-1.072 3.055l5.512-.605a1.232 1.232 0 011.367 1.213c.004.43.03.858.077 1.285l.002.013a.163.163 0 00.048.1l.005.006 2.417 2.417.005.005a.169.169 0 00.116.05c.423.047.849.073 1.276.077a1.231 1.231 0 011.213 1.367l-.605 5.509c.86-.185 1.973-.51 3.06-1.069 1.408-.724 2.696-1.799 3.397-3.402.489-1.122.616-2.503.488-3.999-.038-.436.159-.86.517-1.113a21.37 21.37 0 002.854-2.41l.005-.004c2.488-2.474 4.629-5.996 6.021-9.45.694-1.72 1.19-3.396 1.453-4.884.213-1.206.263-2.237.172-3.049-.765-.086-1.76-.037-2.947.173-1.479.263-3.163.76-4.9 1.455zm-1.285 5.463a2.057 2.057 0 00-1.454 3.51l.001.001a2.048 2.048 0 002.239.446c.249-.103.476-.255.666-.446l.001-.001a2.051 2.051 0 00.446-2.24 2.053 2.053 0 00-1.899-1.27zm-2.512-1.703a4.518 4.518 0 016.688 2.03 4.518 4.518 0 01-.979 4.925 4.52 4.52 0 11-5.709-6.955z" clip-rule="evenodd"/>
  <path fill="#DB210F" fill-rule="evenodd" d="M201.804 28.458a1.232 1.232 0 01-1.073 1.373c-.494.061-.955.285-1.307.637-.119.12-.31.447-.498 1.064-.177.579-.31 1.267-.406 1.95-.06.426-.104.838-.137 1.203a24.08 24.08 0 001.204-.138c.683-.096 1.371-.228 1.949-.405.619-.19.945-.381 1.062-.499l.002-.002c.353-.35.577-.81.636-1.304a1.232 1.232 0 112.447.293 4.673 4.673 0 01-1.343 2.756c-.561.562-1.375.895-2.083 1.112-.75.23-1.578.384-2.326.49a27.662 27.662 0 01-2.766.243l-.048.002h-.019l-.032-1.231-1.232-.032.001-.006v-.014l.001-.047.007-.175a28.119 28.119 0 01.237-2.59c.105-.748.26-1.576.489-2.326.216-.709.55-1.523 1.11-2.085l.002-.002a4.705 4.705 0 012.75-1.34 1.232 1.232 0 011.373 1.073zm-4.738 7.544l-1.232-.032a1.235 1.235 0 001.264 1.263l-.032-1.231z" clip-rule="evenodd"/>
  <defs>
    <linearGradient id="paint0_linear" x1="86.1" x2="197.724" y1="91.584" y2="92.262" gradientUnits="userSpaceOnUse">
      <stop stop-color="#06F"/>
      <stop offset=".11" stop-color="#599CFF"/>
      <stop offset=".184" stop-color="#C98BFF"/>
      <stop offset=".341" stop-color="#F8C369"/>
      <stop offset=".498" stop-color="#F5A623"/>
      <stop offset=".643" stop-color="#9EF0B7"/>
      <stop offset=".698" stop-color="#50FF8F"/>
      <stop offset="1" stop-color="#00C05B"/>
    </linearGradient>
    <linearGradient id="paint1_linear" x1="86.1" x2="197.724" y1="91.584" y2="92.262" gradientUnits="userSpaceOnUse">
      <stop stop-color="#06F"/>
      <stop offset=".11" stop-color="#599CFF"/>
      <stop offset=".184" stop-color="#C98BFF"/>
      <stop offset=".341" stop-color="#F8C369"/>
      <stop offset=".498" stop-color="#F5A623"/>
      <stop offset=".643" stop-color="#9EF0B7"/>
      <stop offset=".698" stop-color="#50FF8F"/>
      <stop offset="1" stop-color="#00C05B"/>
    </linearGradient>
    <linearGradient id="paint2_linear" x1="86.1" x2="197.724" y1="91.584" y2="92.262" gradientUnits="userSpaceOnUse">
      <stop stop-color="#06F"/>
      <stop offset=".11" stop-color="#599CFF"/>
      <stop offset=".184" stop-color="#C98BFF"/>
      <stop offset=".341" stop-color="#F8C369"/>
      <stop offset=".498" stop-color="#F5A623"/>
      <stop offset=".643" stop-color="#9EF0B7"/>
      <stop offset=".698" stop-color="#50FF8F"/>
      <stop offset="1" stop-color="#00C05B"/>
    </linearGradient>
    <linearGradient id="paint3_linear" x1="117.75" x2="166.201" y1="71.979" y2="72.174" gradientUnits="userSpaceOnUse">
      <stop stop-color="#599CFF"/>
      <stop offset=".103" stop-color="#06F"/>
      <stop offset=".2" stop-color="#C98BFF"/>
      <stop offset=".315" stop-color="#AF5CF8"/>
      <stop offset=".323" stop-color="#F8C369"/>
      <stop offset=".446" stop-color="#F5A623"/>
      <stop offset=".539" stop-color="#9EF0B7"/>
      <stop offset=".659" stop-color="#50FF8F"/>
      <stop offset="1" stop-color="#00C05B"/>
    </linearGradient>
  </defs>
</svg>