<svg width="41" height="40" viewBox="0 0 41 40" fill="none" xmlns="http://www.w3.org/2000/svg">
<path opacity="0.2" d="M27.3397 8.69948L38.7657 13.9103C39.5732 14.2773 40.4926 14.9924 40.4947 16.136C40.4969 17.281 39.5797 17.9979 38.7743 18.3657L34.901 20.1327L38.7725 21.8689C39.5785 22.2353 40.502 22.9516 40.4993 24.1002C40.4965 25.2463 39.5731 25.9598 38.7648 26.3257L38.7625 26.3268L35.0355 28.0267L38.7855 29.8317C39.5893 30.2004 40.5001 30.9143 40.5001 32.0541C40.5001 33.1999 39.5798 33.9153 38.7729 34.2823L27.449 39.4481C26.5979 39.8357 25.5567 40 24.5849 40C23.6131 40 22.5726 39.836 21.7216 39.4485L10.3974 34.2826C9.59064 33.9156 8.66969 33.1998 8.66969 32.0541C8.66969 30.9081 9.59045 30.1926 10.3974 29.8257L10.4028 29.8233L14.2613 28.0915L10.3899 26.3257C9.58312 25.9587 8.66217 25.243 8.66217 24.0973C8.66217 22.9513 9.58293 22.2358 10.3899 21.8689L10.3952 21.8665L14.2632 20.1301L10.3974 18.3666C9.59104 17.9998 8.66969 17.2843 8.66969 16.1386C8.66969 14.9929 9.59012 14.2778 10.3965 13.911L21.8163 8.69948C22.6404 8.32276 23.643 8.16388 24.578 8.16388C25.5128 8.16388 26.5157 8.32292 27.3397 8.69948Z" fill="#0066FF"/>
<path fill-rule="evenodd" clip-rule="evenodd" d="M26.5566 22.9751C26.8498 22.3657 27.5814 22.1094 28.1907 22.4027L34.2965 25.3417C35.1003 25.7103 36.0111 26.4243 36.0111 27.5641C36.0111 28.7098 35.0908 29.4253 34.284 29.7922C34.2838 29.7923 34.2842 29.7921 34.284 29.7922L22.96 34.958C22.1089 35.3456 21.0678 35.5099 20.0959 35.5099C19.1241 35.5099 18.0836 35.3459 17.2326 34.9584L5.90846 29.7925C5.9082 29.7924 5.90872 29.7926 5.90846 29.7925C5.10167 29.4255 4.18073 28.7097 4.18073 27.5641C4.18073 26.418 5.10148 25.7025 5.90846 25.3356L5.91384 25.3332L12.242 22.4929C12.8589 22.2161 13.5834 22.4918 13.8602 23.1089C14.137 23.7259 13.8613 24.4506 13.2444 24.7275L6.9244 27.5641L18.2472 32.7294C18.6886 32.9304 19.3579 33.0607 20.0959 33.0607C20.8339 33.0607 21.5033 32.9304 21.9446 32.7294L33.2675 27.5641L33.2459 27.5539L27.1289 24.6096C26.5196 24.3163 26.2634 23.5845 26.5566 22.9751Z" fill="#003380"/>
<path fill-rule="evenodd" clip-rule="evenodd" d="M26.3178 15.1485C26.5944 14.5314 27.3188 14.2554 27.9358 14.5321L34.2835 17.3788C35.0894 17.7452 36.013 18.4615 36.0102 19.6101C36.0075 20.7562 35.0841 21.4697 34.2758 21.8356C34.275 21.836 34.2742 21.8363 34.2734 21.8367L22.9524 27.0004C22.1011 27.3886 21.0604 27.5528 20.0884 27.5528C19.1163 27.5528 18.0757 27.3886 17.2245 27.0005L5.90089 21.8356C5.90063 21.8355 5.90115 21.8357 5.90089 21.8356C5.0941 21.4686 4.17316 20.7529 4.17316 19.6072C4.17316 18.4612 5.09392 17.7457 5.90089 17.3788L5.90622 17.3764L12.242 14.5323C12.8589 14.2554 13.5834 14.5311 13.8603 15.1481C14.1371 15.7651 13.8615 16.4898 13.2446 16.7667L6.91684 19.6072L18.2402 24.772C18.6814 24.9732 19.3505 25.1037 20.0884 25.1037C20.8262 25.1037 21.4953 24.9732 21.9365 24.772L33.2637 19.6055L26.9341 16.7669C26.3171 16.4902 26.0412 15.7656 26.3178 15.1485Z" fill="#0066FF"/>
<path fill-rule="evenodd" clip-rule="evenodd" d="M5.53611 9.03269C4.70704 9.40186 3.76841 10.4224 3.76562 11.5785C3.76562 12.7342 4.71023 13.4562 5.53775 13.8264L17.1528 19.0372C18.0257 19.4281 19.0929 19.5935 20.0897 19.5935C21.0865 19.5935 22.1544 19.4278 23.0273 19.0369L34.6422 13.8261C35.4698 13.4559 36.4138 12.7343 36.4138 11.5785C36.4138 10.4229 35.4675 9.4029 34.64 9.03271L23.0255 3.82288C22.1524 3.43136 21.085 3.26575 20.088 3.26575C19.091 3.26575 18.0235 3.43141 17.1504 3.82293L5.5385 9.03162L5.53611 9.03269ZM21.9837 6.07079L33.6083 11.5785L21.9859 16.7888C21.5332 16.9915 20.8466 17.123 20.0897 17.123C19.3327 17.123 18.6462 16.9915 18.1935 16.7888L6.57979 11.5785L18.1924 6.07078C18.6449 5.86785 19.3312 5.73623 20.088 5.73623C20.8448 5.73623 21.5311 5.86785 21.9837 6.07079Z" fill="#00C05B"/>
</svg>