<svg viewBox="0 0 24 24" fill="none" xmlns="http://www.w3.org/2000/svg">
<path d="M12 1.49988C6.20156 1.49988 1.5 6.32331 1.5 12.2671C1.5 17.0249 4.50937 21.0561 8.68125 22.4811C8.73976 22.4938 8.79949 22.5001 8.85937 22.4999C9.24843 22.4999 9.39843 22.2139 9.39843 21.9655C9.39843 21.7077 9.38906 21.0327 9.38437 20.1327C9.03705 20.2141 8.68173 20.2565 8.325 20.2592C6.30469 20.2592 5.84531 18.6889 5.84531 18.6889C5.36719 17.4467 4.67812 17.1139 4.67812 17.1139C3.76406 16.4717 4.67344 16.453 4.74375 16.453H4.74844C5.80312 16.5467 6.35625 17.5686 6.35625 17.5686C6.88125 18.4874 7.58437 18.7452 8.2125 18.7452C8.62783 18.7369 9.03673 18.641 9.4125 18.4639C9.50625 17.7702 9.77812 17.2967 10.0781 17.0249C7.74843 16.753 5.29687 15.8296 5.29687 11.7046C5.29687 10.528 5.70469 9.56706 6.375 8.81706C6.26718 8.54519 5.90625 7.44831 6.47812 5.96706C6.55483 5.94871 6.63367 5.94082 6.7125 5.94362C7.09218 5.94362 7.95 6.08894 9.36562 7.07331C11.0857 6.59205 12.9049 6.59205 14.625 7.07331C16.0406 6.08894 16.8984 5.94362 17.2781 5.94362C17.3569 5.94082 17.4358 5.94871 17.5125 5.96706C18.0844 7.44831 17.7234 8.54519 17.6156 8.81706C18.2859 9.57175 18.6937 10.5327 18.6937 11.7046C18.6937 15.8389 16.2375 16.7483 13.8984 17.0155C14.2734 17.3483 14.6109 18.0046 14.6109 19.0077C14.6109 20.4467 14.5969 21.6092 14.5969 21.9608C14.5969 22.2139 14.7422 22.4999 15.1312 22.4999C15.1942 22.5001 15.2571 22.4939 15.3187 22.4811C19.4953 21.0561 22.5 17.0202 22.5 12.2671C22.5 6.32331 17.7984 1.49988 12 1.49988Z" />
</svg>