<svg viewBox="0 0 150 54" fill="none" xmlns="http://www.w3.org/2000/svg">
<path d="M96.1368 33.4131C96.5692 33.4131 96.9839 33.2413 97.2897 32.9355C97.5955 32.6298 97.7673 32.2151 97.7673 31.7827C97.7673 31.3502 97.5955 30.9355 97.2897 30.6298C96.9839 30.324 96.5692 30.1522 96.1368 30.1522H89.6087C89.1763 30.1522 88.7616 30.324 88.4558 30.6298C88.15 30.9355 87.9783 31.3502 87.9783 31.7827C87.9783 32.2151 88.15 32.6298 88.4558 32.9355C88.7616 33.2413 89.1763 33.4131 89.6087 33.4131H96.1368Z" fill="#39475B"/>
<path d="M63.5526 33.4131H70.0806C70.5131 33.4131 70.9278 33.2413 71.2335 32.9355C71.5393 32.6298 71.7111 32.2151 71.7111 31.7827C71.7111 31.3502 71.5393 30.9355 71.2335 30.6298C70.9278 30.324 70.5131 30.1522 70.0806 30.1522H63.5526C63.1201 30.1522 62.7054 30.324 62.3997 30.6298C62.0939 30.9355 61.9221 31.3502 61.9221 31.7827C61.9221 32.2151 62.0939 32.6298 62.3997 32.9355C62.7054 33.2413 63.1201 33.4131 63.5526 33.4131Z" fill="#39475B"/>
<path d="M57.0499 33.4131C57.4823 33.4131 57.897 33.2413 58.2028 32.9355C58.5086 32.6298 58.6803 32.2151 58.6803 31.7827C58.6803 31.3502 58.5086 30.9355 58.2028 30.6298C57.897 30.324 57.4823 30.1522 57.0499 30.1522H50.5218C50.0894 30.1522 49.6747 30.324 49.3689 30.6298C49.0631 30.9355 48.8914 31.3502 48.8914 31.7827C48.8914 32.2151 49.0631 32.6298 49.3689 32.9355C49.6747 33.2413 50.0894 33.4131 50.5218 33.4131H57.0499Z" fill="#39475B"/>
<path d="M25.5526 33.4131H32.0806C32.5131 33.4131 32.9278 33.2413 33.2335 32.9355C33.5393 32.6298 33.7111 32.2151 33.7111 31.7827C33.7111 31.3502 33.5393 30.9355 33.2335 30.6298C32.9278 30.324 32.5131 30.1522 32.0806 30.1522H25.5526C25.1201 30.1522 24.7054 30.324 24.3997 30.6298C24.0939 30.9355 23.9221 31.3502 23.9221 31.7827C23.9221 32.2151 24.0939 32.6298 24.3997 32.9355C24.7054 33.2413 25.1201 33.4131 25.5526 33.4131Z" fill="#39475B"/>
<path d="M19.0499 33.4131C19.4823 33.4131 19.897 33.2413 20.2028 32.9355C20.5086 32.6298 20.6803 32.2151 20.6803 31.7827C20.6803 31.3502 20.5086 30.9355 20.2028 30.6298C19.897 30.324 19.4823 30.1522 19.0499 30.1522H12.5218C12.0894 30.1522 11.6747 30.324 11.3689 30.6298C11.0631 30.9355 10.8914 31.3502 10.8914 31.7827C10.8914 32.2151 11.0631 32.6298 11.3689 32.9355C11.6747 33.2413 12.0894 33.4131 12.5218 33.4131H19.0499Z" fill="#39475B"/>
<path d="M4.8913 33.4131C5.32372 33.4131 5.73843 33.2413 6.0442 32.9355C6.34996 32.6298 6.52174 32.2151 6.52174 31.7827C6.52174 31.3502 6.34996 30.9355 6.0442 30.6298C5.73843 30.324 5.32372 30.1522 4.8913 30.1522H1.63043C1.19802 30.1522 0.783308 30.324 0.477542 30.6298C0.171776 30.9355 0 31.3502 0 31.7827C0 32.2151 0.171776 32.6298 0.477542 32.9355C0.783308 33.2413 1.19802 33.4131 1.63043 33.4131H4.8913Z" fill="#39475B"/>
<path opacity="0.1" d="M83.2931 38.9709L83.5662 33.616L88.723 32.2342L83.7373 30.3045L84.0091 24.9518L80.6523 29.115L75.6653 27.1875L78.577 31.6872L75.2237 35.8494L80.3805 34.4677L83.2931 38.9709Z" fill="#DB210F"/>
<path d="M81.5746 38.1559L81.8147 33.3624L86.4178 32.129L81.9652 30.398L82.2042 25.6065L79.21 29.3311L74.7563 27.6021L77.359 31.6323L74.368 35.356L78.9711 34.1226L81.5746 38.1559ZM78.3675 31.6873L76.8133 29.2802L79.4731 30.313L81.2618 28.0882L81.1193 30.9499L83.7812 31.984L81.0294 32.7213L80.8853 35.5835L79.3311 33.1764L76.5793 33.9137L78.3675 31.6873Z" fill="#DB210F"/>
<path opacity="0.1" d="M46.3833 18.3846L52.7866 20.4552L52.7866 27.1559L56.7457 21.7384L63.1467 23.8067L59.1899 18.3846L63.1467 12.9648L56.7457 15.0331L52.7889 9.61559L52.7889 16.3163L46.3833 18.3846Z" fill="#0066FF"/>
<path d="M47.9292 16.5656L53.6626 18.4139L53.6626 24.3951L57.2076 19.5593L62.9389 21.4055L59.3961 16.5656L62.9389 11.7278L57.2076 13.574L53.6647 8.73825L53.6647 14.7194L47.9292 16.5656ZM56.8132 14.7789L60.2364 13.6765L58.1201 16.5656L60.2364 19.4568L56.8132 18.3545L54.6949 21.2457L54.6949 17.6701L51.2718 16.5656L54.6949 15.4632L54.6949 11.8876L56.8132 14.7789Z" fill="#0066FF"/>
<path opacity="0.1" d="M49.2352 42.907C46.4443 42.907 44.1728 45.1958 44.1728 48.0078C44.1728 50.8199 46.4443 53.1087 49.2352 53.1087C52.0261 53.1087 54.2976 50.8199 54.2976 48.0078C54.2976 45.1958 52.0283 42.907 49.2352 42.907Z" fill="#0066FF"/>
<path d="M47.3016 41.9349C44.5107 41.9349 42.2392 44.2237 42.2392 47.0357C42.2392 49.8478 44.5107 52.1366 47.3016 52.1366C50.0925 52.1366 52.364 49.8478 52.364 47.0357C52.364 44.2237 50.0947 41.9349 47.3016 41.9349ZM47.3016 50.999C45.1317 50.999 43.3682 49.2199 43.3682 47.0357C43.3682 44.8516 45.1317 43.0724 47.3016 43.0724C49.4715 43.0724 51.235 44.8516 51.235 47.0357C51.235 49.2199 49.4715 50.999 47.3016 50.999Z" fill="#0066FF"/>
<path opacity="0.2" d="M45.2288 33.7844L36.0443 38.346L36.0443 29.1548L45.2288 33.7844Z" fill="#0066FF"/>
<path d="M46.0454 32.1534L36.861 36.7151V27.5238L46.0454 32.1534Z" fill="#0066FF"/>
<path d="M67.2144 42.5774C66.6411 43.2116 66.8728 43.9853 67.5006 44.5588L69.5116 45.9801C70.0604 46.352 70.9653 46.1638 71.3386 45.6107C71.766 44.9047 71.5286 44.1477 71.0515 43.629L69.0405 42.2077C68.3409 41.7805 67.5875 42.0228 67.2144 42.5774Z" fill="#1ABCFE"/>
<path d="M70.4594 50.7885L71.8785 48.719C72.2451 48.1815 72.0857 47.2626 71.5367 46.8896C70.8522 46.4683 70.0819 46.7051 69.7259 47.2645L68.2963 49.3118C67.7723 49.8105 67.9486 50.7368 68.6495 51.1641C69.1877 51.5138 70.0313 51.4952 70.4594 50.7885Z" fill="#1ABCFE"/>
<path d="M72.7993 46.6596C72.2926 47.1649 72.4521 48.0848 73.1518 48.5117L75.1526 49.9109C75.846 50.3552 76.5446 50.2644 76.9722 49.5582C77.4966 49.059 77.32 48.1332 76.637 47.7114L74.6257 46.29C74.1488 45.7724 73.2277 45.954 72.7993 46.6596Z" fill="#1ABCFE"/>
<path d="M73.7232 41.3456L72.3653 43.2458C71.9378 43.9517 72.0967 44.8721 72.6522 45.2274C73.3363 45.6486 74.1009 45.4284 74.6077 44.9235L75.8366 42.9577C76.4103 42.3236 76.2338 41.3968 75.5501 40.9762C75.0012 40.6028 74.096 40.7909 73.7232 41.3456Z" fill="#1ABCFE"/>
<path d="M133.87 15.0008C131.394 12.5213 128.077 11.156 124.53 11.156C122.799 11.1519 121.083 11.4898 119.483 12.1505C117.883 12.8112 116.428 13.7815 115.204 15.0058C113.98 16.2301 113.009 17.6843 112.349 19.2847C111.688 20.8851 111.35 22.6002 111.354 24.3317C111.354 28.1707 112.826 31.7619 115.389 34.1838L115.748 34.5206C117.231 35.9073 119.26 37.8071 119.26 39.4837V41.46C119.26 41.8095 119.398 42.1446 119.646 42.3917C119.893 42.6388 120.228 42.7776 120.577 42.7776H122.554C122.728 42.7776 122.896 42.7082 123.019 42.5846C123.143 42.4611 123.212 42.2935 123.212 42.1188V32.4693C123.212 32.3361 123.172 32.2059 123.097 32.0961C123.021 31.9863 122.914 31.9019 122.79 31.8541C122.029 31.5437 121.306 31.1473 120.636 30.6724C120.485 30.5762 120.355 30.4503 120.255 30.3024C120.155 30.1545 120.085 29.9877 120.051 29.8121C120.017 29.6366 120.019 29.4559 120.058 29.2812C120.096 29.1065 120.169 28.9414 120.273 28.7959C120.377 28.6504 120.509 28.5277 120.662 28.435C120.815 28.3424 120.985 28.2818 121.162 28.2571C121.34 28.2323 121.52 28.2439 121.692 28.2911C121.865 28.3382 122.026 28.42 122.166 28.5314C122.775 28.9629 123.949 29.6019 124.53 29.6019C125.111 29.6019 126.285 28.9613 126.896 28.5314C127.18 28.3525 127.522 28.2891 127.852 28.3542C128.182 28.4192 128.474 28.6078 128.669 28.8813C128.865 29.1549 128.948 29.4926 128.902 29.8256C128.857 30.1585 128.686 30.4615 128.424 30.6724C127.753 31.1464 127.031 31.5421 126.27 31.8517C126.146 31.8995 126.039 31.9838 125.963 32.0937C125.888 32.2035 125.847 32.3336 125.848 32.4668V42.1188C125.848 42.2935 125.917 42.4611 126.04 42.5846C126.164 42.7082 126.332 42.7776 126.506 42.7776H128.483C128.832 42.7776 129.167 42.6388 129.414 42.3917C129.661 42.1446 129.8 41.8095 129.8 41.46V39.4837C129.8 37.8466 131.806 35.9485 133.271 34.5617L133.676 34.178C136.312 31.6606 137.706 28.2522 137.706 24.3317C137.714 22.6001 137.38 20.8839 136.721 19.2824C136.063 17.6808 135.094 16.2256 133.87 15.0008Z" fill="#F8C369"/>
<path fill-rule="evenodd" clip-rule="evenodd" d="M124.53 11.1552C131.865 11.1552 137.706 17.0167 137.706 24.3309C137.706 28.223 136.335 31.635 133.681 34.172C132.797 35.0187 131.812 35.9106 131.019 36.8932C130.213 37.8927 129.801 38.7586 129.801 39.4917V41.4593C129.801 42.187 129.211 42.7769 128.483 42.7769C127.755 42.7769 127.166 42.187 127.166 41.4593V39.4917C127.166 37.8356 128.053 36.3739 128.968 35.2388C129.757 34.2611 130.711 33.3572 131.472 32.6357C133.798 30.4315 135.071 27.5569 135.071 24.3309C135.071 18.4695 130.407 13.7903 124.53 13.7903C118.838 13.7903 113.99 18.5761 113.99 24.3309C113.99 27.4721 115.201 30.4064 117.499 32.5453C118.278 33.2698 119.272 34.1951 120.092 35.2125C121.012 36.3529 121.895 37.822 121.895 39.4917V41.4593C121.895 42.187 121.305 42.7769 120.578 42.7769C119.85 42.7769 119.26 42.187 119.26 41.4593V39.4917C119.26 38.7371 118.843 37.8609 118.041 36.8669C117.253 35.8893 116.267 35.0035 115.39 34.1813C112.774 31.7235 111.355 28.091 111.355 24.3309C111.355 17.1438 117.42 11.1552 124.53 11.1552Z" fill="#F24E1E"/>
<path fill-rule="evenodd" clip-rule="evenodd" d="M120.577 49.3635C120.577 48.6359 121.167 48.046 121.895 48.046H127.165C127.893 48.046 128.483 48.6359 128.483 49.3635C128.483 50.0912 127.893 50.6811 127.165 50.6811H121.895C121.167 50.6811 120.577 50.0912 120.577 49.3635Z" fill="#73250E"/>
<path fill-rule="evenodd" clip-rule="evenodd" d="M119.26 45.4132C119.26 44.6855 119.85 44.0956 120.578 44.0956H128.483C129.211 44.0956 129.801 44.6855 129.801 45.4132C129.801 46.1409 129.211 46.7308 128.483 46.7308H120.578C119.85 46.7308 119.26 46.1409 119.26 45.4132Z" fill="#F24E1E"/>
<path d="M120.344 28.814C120.778 28.2301 121.603 28.1089 122.187 28.5432C122.472 28.7473 122.772 28.9327 123.08 29.0987C123.662 29.4117 124.198 29.6004 124.53 29.6004C124.862 29.6004 125.398 29.4117 125.98 29.0987C126.288 28.9329 126.59 28.7491 126.873 28.5432C127.457 28.1094 128.282 28.2303 128.717 28.814C129.151 29.3979 129.03 30.2232 128.446 30.6575C128.062 30.9424 127.649 31.1933 127.228 31.4196C126.867 31.6139 126.384 31.8475 125.848 32.0148V41.4593C125.848 42.1869 125.258 42.7768 124.53 42.7768C123.802 42.7768 123.213 42.1869 123.213 41.4593V32.0147C122.677 31.8474 122.194 31.6139 121.832 31.4196C121.412 31.1936 121 30.9432 120.616 30.6589C120.039 30.2305 119.915 29.391 120.344 28.814Z" fill="#73250E"/>
<g opacity="0.3">
<path fill-rule="evenodd" clip-rule="evenodd" d="M125.686 9.86639C124.907 9.86639 124.276 9.23504 124.276 8.45621V2.8155C124.276 2.03668 124.907 1.40532 125.686 1.40532C126.465 1.40532 127.096 2.03668 127.096 2.8155V8.45621C127.096 9.23504 126.465 9.86639 125.686 9.86639Z" fill="#50FF8F"/>
<path fill-rule="evenodd" clip-rule="evenodd" d="M140.795 18.5289C140.795 17.7501 141.427 17.1187 142.206 17.1187H147.846C148.625 17.1187 149.256 17.7501 149.256 18.5289C149.256 19.3077 148.625 19.9391 147.846 19.9391H142.206C141.427 19.9391 140.795 19.3077 140.795 18.5289Z" fill="#50FF8F"/>
<path fill-rule="evenodd" clip-rule="evenodd" d="M103.406 18.5289C103.406 17.7501 104.037 17.1187 104.816 17.1187H110.456C111.235 17.1187 111.867 17.7501 111.867 18.5289C111.867 19.3077 111.235 19.9391 110.456 19.9391H104.816C104.037 19.9391 103.406 19.3077 103.406 18.5289Z" fill="#50FF8F"/>
<path fill-rule="evenodd" clip-rule="evenodd" d="M111.091 6.51241C111.642 5.9617 112.535 5.9617 113.086 6.51241L117.074 10.501C117.625 11.0517 117.625 11.9446 117.074 12.4953C116.523 13.046 115.631 13.046 115.08 12.4953L111.091 8.5067C110.541 7.95599 110.541 7.06312 111.091 6.51241Z" fill="#50FF8F"/>
<path fill-rule="evenodd" clip-rule="evenodd" d="M134.299 12.4955C133.748 11.9448 133.748 11.0519 134.299 10.5012L138.287 6.51262C138.838 5.96191 139.731 5.96191 140.282 6.51262C140.832 7.06333 140.832 7.95621 140.282 8.50691L136.293 12.4955C135.742 13.0462 134.85 13.0462 134.299 12.4955Z" fill="#50FF8F"/>
</g>
<path fill-rule="evenodd" clip-rule="evenodd" d="M124.281 8.461C123.502 8.461 122.871 7.82964 122.871 7.05082V1.4101C122.871 0.631285 123.502 -7.34329e-05 124.281 -7.34329e-05C125.06 -7.34329e-05 125.691 0.631285 125.691 1.4101V7.05082C125.691 7.82964 125.06 8.461 124.281 8.461Z" fill="#00C05B"/>
<path fill-rule="evenodd" clip-rule="evenodd" d="M139.39 17.1237C139.39 16.3449 140.021 15.7136 140.8 15.7136H146.441C147.22 15.7136 147.851 16.3449 147.851 17.1237C147.851 17.9026 147.22 18.5339 146.441 18.5339H140.8C140.021 18.5339 139.39 17.9026 139.39 17.1237Z" fill="#00C05B"/>
<path fill-rule="evenodd" clip-rule="evenodd" d="M102 17.1237C102 16.3449 102.631 15.7136 103.41 15.7136H109.051C109.83 15.7136 110.461 16.3449 110.461 17.1237C110.461 17.9026 109.83 18.5339 109.051 18.5339H103.41C102.631 18.5339 102 17.9026 102 17.1237Z" fill="#00C05B"/>
<path fill-rule="evenodd" clip-rule="evenodd" d="M109.686 5.10707C110.236 4.55636 111.129 4.55636 111.68 5.10707L115.669 9.09566C116.219 9.64637 116.219 10.5392 115.669 11.09C115.118 11.6407 114.225 11.6407 113.674 11.09L109.686 7.10137C109.135 6.55066 109.135 5.65778 109.686 5.10707Z" fill="#00C05B"/>
<path fill-rule="evenodd" clip-rule="evenodd" d="M132.893 11.0902C132.342 10.5395 132.342 9.64658 132.893 9.09587L136.882 5.10728C137.432 4.55657 138.325 4.55657 138.876 5.10728C139.427 5.65799 139.427 6.55087 138.876 7.10158L134.887 11.0902C134.337 11.6409 133.444 11.6409 132.893 11.0902Z" fill="#00C05B"/>
</svg>
