<svg width="24" height="24" viewBox="0 0 24 24" fill="none" xmlns="http://www.w3.org/2000/svg">
<path d="M5.71033 6.90933C5.38337 6.65503 4.91217 6.71393 4.65786 7.04089C4.40356 7.36785 4.46246 7.83905 4.78942 8.09336L11.5394 13.3434C11.8103 13.554 12.1895 13.554 12.4603 13.3434L19.2103 8.09336C19.5373 7.83905 19.5962 7.36785 19.3419 7.04089C19.0876 6.71393 18.6164 6.65503 18.2894 6.90933L11.9999 11.8012L5.71033 6.90933Z" fill="#003380"/>
<path fill-rule="evenodd" clip-rule="evenodd" d="M4.125 3.7511C2.67525 3.7511 1.5 4.92635 1.5 6.3761V17.6261C1.5 19.0758 2.67525 20.2511 4.125 20.2511H19.875C21.3247 20.2511 22.5 19.0758 22.5 17.6261V6.3761C22.5 4.92635 21.3247 3.7511 19.875 3.7511H4.125ZM3 6.3761C3 5.75478 3.50368 5.2511 4.125 5.2511H19.875C20.4963 5.2511 21 5.75478 21 6.3761V17.6261C21 18.2474 20.4963 18.7511 19.875 18.7511H4.125C3.50368 18.7511 3 18.2474 3 17.6261V6.3761Z" fill="#003380"/>
</svg>