<svg width="24" height="24" viewBox="0 0 24 24" fill="none" xmlns="http://www.w3.org/2000/svg">
<path d="M5.91175 14.7709C5.91138 15.2071 5.78169 15.6334 5.53907 15.996C5.29646 16.3585 4.95181 16.6409 4.54869 16.8076C4.14558 16.9743 3.7021 17.0177 3.27431 16.9324C2.84652 16.847 2.45364 16.6368 2.14532 16.3282C1.837 16.0196 1.62709 15.6266 1.54213 15.1987C1.45716 14.7709 1.50096 14.3274 1.66798 13.9244C1.83499 13.5215 2.11773 13.1771 2.48046 12.9347C2.84318 12.6924 3.2696 12.5631 3.70581 12.5631H5.91175V14.7709Z" fill="#E01E5A"/>
<path d="M7.02368 14.77C7.02368 14.185 7.25609 13.6239 7.66979 13.2102C8.08348 12.7965 8.64457 12.5641 9.22962 12.5641C9.81467 12.5641 10.3758 12.7965 10.7895 13.2102C11.2031 13.6239 11.4356 14.185 11.4356 14.77V20.2938C11.4356 20.8788 11.2031 21.4399 10.7895 21.8536C10.3758 22.2673 9.81467 22.4997 9.22962 22.4997C8.64457 22.4997 8.08348 22.2673 7.66979 21.8536C7.25609 21.4399 7.02368 20.8788 7.02368 20.2938V14.77Z" fill="#E01E5A"/>
<path d="M9.22957 5.91138C8.79336 5.91101 8.36705 5.78132 8.00453 5.53871C7.64202 5.29609 7.35957 4.95144 7.19289 4.54832C7.02622 4.14521 6.9828 3.70173 7.06813 3.27394C7.15346 2.84616 7.3637 2.45327 7.67228 2.14495C7.98086 1.83664 8.37392 1.62673 8.80178 1.54176C9.22964 1.4568 9.67309 1.50059 10.0761 1.66761C10.479 1.83463 10.8234 2.11737 11.0657 2.48009C11.3081 2.84281 11.4374 3.26923 11.4374 3.70545V5.91138H9.22957Z" fill="#36C5F0"/>
<path d="M9.22956 7.02258C9.81461 7.02258 10.3757 7.25499 10.7894 7.66869C11.2031 8.08238 11.4355 8.64347 11.4355 9.22852C11.4355 9.81357 11.2031 10.3747 10.7894 10.7884C10.3757 11.202 9.81461 11.4345 9.22956 11.4345H3.70581C3.12076 11.4345 2.55968 11.202 2.14598 10.7884C1.73229 10.3747 1.49988 9.81357 1.49988 9.22852C1.49988 8.64347 1.73229 8.08238 2.14598 7.66869C2.55968 7.25499 3.12076 7.02258 3.70581 7.02258H9.22956Z" fill="#36C5F0"/>
<path d="M18.088 9.22957C18.0884 8.79336 18.2181 8.36705 18.4607 8.00453C18.7033 7.64202 19.048 7.35957 19.4511 7.19289C19.8542 7.02622 20.2977 6.9828 20.7255 7.06813C21.1532 7.15346 21.5461 7.3637 21.8544 7.67228C22.1628 7.98086 22.3727 8.37392 22.4576 8.80178C22.5426 9.22964 22.4988 9.67309 22.3318 10.0761C22.1648 10.479 21.882 10.8234 21.5193 11.0657C21.1566 11.3081 20.7302 11.4374 20.2939 11.4374H18.088V9.22957Z" fill="#2EB67D"/>
<path d="M16.9761 9.2292C16.9761 9.81425 16.7437 10.3753 16.33 10.789C15.9163 11.2027 15.3552 11.4351 14.7701 11.4351C14.1851 11.4351 13.624 11.2027 13.2103 10.789C12.7966 10.3753 12.5642 9.81425 12.5642 9.2292V3.70545C12.5642 3.1204 12.7966 2.55931 13.2103 2.14562C13.624 1.73192 14.1851 1.49951 14.7701 1.49951C15.3552 1.49951 15.9163 1.73192 16.33 2.14562C16.7437 2.55931 16.9761 3.1204 16.9761 3.70545V9.2292Z" fill="#2EB67D"/>
<path d="M14.7702 18.088C15.2064 18.0884 15.6327 18.2181 15.9952 18.4607C16.3577 18.7033 16.6402 19.048 16.8069 19.4511C16.9735 19.8542 17.017 20.2977 16.9316 20.7255C16.8463 21.1532 16.6361 21.5461 16.3275 21.8544C16.0189 22.1628 15.6258 22.3727 15.198 22.4576C14.7701 22.5426 14.3267 22.4988 13.9237 22.3318C13.5207 22.1648 13.1763 21.882 12.934 21.5193C12.6917 21.1566 12.5624 20.7302 12.5624 20.2939V18.088H14.7702Z" fill="#ECB22E"/>
<path d="M14.7701 16.976C14.1851 16.976 13.624 16.7435 13.2103 16.3299C12.7966 15.9162 12.5642 15.3551 12.5642 14.77C12.5642 14.185 12.7966 13.6239 13.2103 13.2102C13.624 12.7965 14.1851 12.5641 14.7701 12.5641H20.2939C20.8789 12.5641 21.44 12.7965 21.8537 13.2102C22.2674 13.6239 22.4998 14.185 22.4998 14.77C22.4998 15.3551 22.2674 15.9162 21.8537 16.3299C21.44 16.7435 20.8789 16.976 20.2939 16.976H14.7701Z" fill="#ECB22E"/>
</svg>