<svg viewBox="0 0 30 29" fill="none" xmlns="http://www.w3.org/2000/svg">
  <defs/>
  <rect opacity=".2" x="4.2" y="8.733" width="25.2" height="18.2" rx="3.111" fill="#50FF8F"/>
  <path d="M13.955 22.854a.58.58 0 00-.127-.19l-3.499-3.5a.583.583 0 00-.825.825l2.505 2.504H4.082a1.752 1.752 0 01-1.75-1.75V7.91a1.752 1.752 0 011.75-1.75.583.583 0 100-1.167A2.92 2.92 0 001.167 7.91v12.833a2.92 2.92 0 002.916 2.917h7.925l-2.504 2.504a.584.584 0 10.825.825l3.5-3.5a.585.585 0 00.126-.636z" fill="#00401E"/>
  <path d="M23.916 4.994h-7.925l2.504-2.505a.584.584 0 00-.825-.825l-3.5 3.5a.586.586 0 000 .827l3.5 3.5a.583.583 0 00.825-.825L15.991 6.16h7.925a1.752 1.752 0 011.75 1.75V20.75a1.752 1.752 0 01-1.75 1.75.583.583 0 100 1.168 2.92 2.92 0 002.917-2.918V7.911a2.92 2.92 0 00-2.916-2.917z" fill="#00C05B"/>
  <path d="M11.43 8.403a.243.243 0 01-.143-.046L9.333 6.941 7.38 8.357a.243.243 0 01-.373-.275l.762-2.257-1.975-1.354a.243.243 0 01.137-.443h2.436l.735-2.263a.243.243 0 01.463 0l.735 2.263h2.436a.243.243 0 01.138.444l-1.976 1.353.761 2.257a.243.243 0 01-.23.32z" fill="#F5A623"/>
  <path d="M20.763 26.291a.243.243 0 01-.143-.045l-1.953-1.416-1.954 1.416a.243.243 0 01-.373-.275l.762-2.257-1.975-1.354a.243.243 0 01.137-.444H17.7l.735-2.262a.244.244 0 01.463 0l.735 2.263h2.436a.243.243 0 01.138.444l-1.976 1.353.762 2.257a.243.243 0 01-.23.32z" fill="#AF5CF8"/>
</svg>
