<svg viewBox="0 0 28 29" fill="none" xmlns="http://www.w3.org/2000/svg">
<g opacity="0.3">
<path d="M25.4563 8.5525C25.4458 8.38488 25.3794 8.22563 25.2676 8.10027C25.1559 7.9749 25.0053 7.89068 24.8399 7.86109C20.8073 7.13828 19.1104 6.57297 15.4687 4.93422C15.1049 4.79875 14.8795 4.8011 14.5312 4.93422C10.8895 6.57484 9.1926 7.13734 5.15994 7.86109C4.99462 7.89068 4.84401 7.9749 4.73225 8.10027C4.62048 8.22563 4.55403 8.38488 4.54353 8.5525C4.36307 11.4166 4.74697 14.0837 5.68541 16.4814C6.45276 18.4365 7.58957 20.2255 9.03369 21.7506C11.1276 23.9739 13.4493 25.2719 14.6465 25.7631C14.8735 25.8557 15.1278 25.8557 15.3548 25.7631C16.6204 25.2512 18.8559 23.9903 20.9662 21.7497C22.4102 20.2249 23.547 18.4362 24.3145 16.4814C25.2529 14.0842 25.6368 11.4166 25.4563 8.5525Z" fill="#50FF8F"/>
</g>
<path fill-rule="evenodd" clip-rule="evenodd" d="M16.2409 8.01597C16.554 8.28706 16.5881 8.76071 16.3171 9.07389L11.1233 15.0739C10.9879 15.2303 10.7938 15.3239 10.5871 15.3324C10.3803 15.3409 10.1792 15.2636 10.0314 15.1188L7.72514 12.8594C7.42926 12.5695 7.42438 12.0947 7.71425 11.7988C8.00412 11.5029 8.47897 11.498 8.77486 11.7879L10.5113 13.489L15.1829 8.09217C15.454 7.77899 15.9277 7.74487 16.2409 8.01597Z" fill="#754F10"/>
<path fill-rule="evenodd" clip-rule="evenodd" d="M11.6914 1.90003C11.8876 1.8114 12.1125 1.8114 12.3088 1.90003C16.0376 3.58402 17.7114 4.12206 21.8403 4.86268C22.1803 4.92367 22.4346 5.20896 22.4564 5.55367C23.249 18.1168 13.0536 22.4678 12.2802 22.7793C12.1005 22.8516 11.8997 22.8516 11.7199 22.7793C10.9465 22.4678 0.751086 18.1168 1.54374 5.55367C1.56549 5.20896 1.81986 4.92367 2.15983 4.86268C6.28868 4.12206 7.96256 3.58402 11.6914 1.90003ZM3.01221 6.23196C2.65857 16.4645 10.3286 20.509 12.0001 21.267C13.6715 20.509 21.3415 16.4645 20.9879 6.23196C17.2568 5.53931 15.452 4.9527 12.0001 3.40596C8.54809 4.9527 6.74337 5.53931 3.01221 6.23196Z" fill="#F24E1E"/>
</svg>
