<svg viewBox="0 0 29 29" fill="none" xmlns="http://www.w3.org/2000/svg">
  <defs/>
  <path fill-rule="evenodd" clip-rule="evenodd" d="M8.904 8.062c1.567-.403 3.98 1.151 7.433 4.604 3.472 3.473 5.024 5.894 4.597 7.46a.505.505 0 01-.301.336l-18.94 7.505a.505.505 0 01-.656-.656L8.533 8.39a.504.504 0 01.371-.329zM19.96 19.238c-1.677-.789-3.604-2.264-5.767-4.428-2.164-2.164-3.639-4.09-4.428-5.767 1.2.236 3.19 1.67 5.857 4.338 2.668 2.667 4.102 4.657 4.338 5.857z" fill="#fff"/>
  <path fill-rule="evenodd" clip-rule="evenodd" d="M19.96 19.238c-1.677-.789-3.604-2.264-5.767-4.428-2.164-2.164-3.64-4.09-4.428-5.767 1.2.236 3.19 1.67 5.857 4.338 2.668 2.667 4.102 4.657 4.338 5.857z" fill="#fff" fill-opacity=".52"/>
  <g filter="url(#filter0_d)">
    <path d="M5.352 26.442l-.916-.426a5.535 5.535 0 00.516-2.345 5.53 5.53 0 00-1.015-3.203l.826-.584a6.541 6.541 0 011.2 3.787c0 .97-.21 1.91-.611 2.771z" fill="#F24E1E"/>
  </g>
  <g filter="url(#filter1_d)">
    <path d="M8.375 25.192l-.914-.43a8.179 8.179 0 00.776-3.491 8.181 8.181 0 00-2.242-5.64l.735-.694a9.192 9.192 0 012.518 6.334c0 1.373-.3 2.705-.873 3.921z" fill="#F24E1E"/>
  </g>
  <g filter="url(#filter2_d)">
    <path d="M10.653 24.375l-.818-.594a10.687 10.687 0 002.041-6.3c0-2.023-.559-3.961-1.6-5.643l.86-.532a11.696 11.696 0 011.751 6.174c0 2.511-.79 4.905-2.234 6.895z" fill="#F24E1E"/>
  </g>
  <g filter="url(#filter3_d)">
    <path d="M15.102 22.604l-.861-.528a10.67 10.67 0 001.54-4.716l1.008.083a11.681 11.681 0 01-1.687 5.16z" fill="#F24E1E"/>
  </g>
  <g filter="url(#filter4_d)">
    <path d="M10.075 14.727a.505.505 0 11-.905.451 10.675 10.675 0 00-1.76-2.535.505.505 0 11.738-.69 11.688 11.688 0 011.927 2.774z" fill="#F24E1E"/>
  </g>
  <g filter="url(#filter5_d)">
    <path fill-rule="evenodd" clip-rule="evenodd" d="M8.904 8.062c1.567-.403 3.98 1.151 7.433 4.604 3.472 3.473 5.024 5.894 4.597 7.46a.505.505 0 01-.301.336l-18.94 7.505a.505.505 0 01-.656-.656L8.533 8.39a.504.504 0 01.371-.329zm10.243 11.902l-16.74 6.633L9.04 9.857c.878 1.702 2.358 3.588 4.438 5.668 2.08 2.08 3.967 3.56 5.67 4.438zm.813-.726c-1.677-.789-3.604-2.264-5.767-4.428-2.164-2.164-3.639-4.09-4.428-5.767 1.2.236 3.19 1.67 5.857 4.338 2.668 2.667 4.102 4.657 4.338 5.857z" fill="#F24E1E"/>
  </g>
  <g filter="url(#filter6_d)">
    <path d="M23.523 6.477a.4.4 0 01.105.793 8.05 8.05 0 00-3.504 1.346.4.4 0 11-.453-.66 8.85 8.85 0 013.852-1.479z" fill="#00C05B"/>
  </g>
  <g filter="url(#filter7_d)">
    <path d="M20.523 12.877a.4.4 0 11.105.793 8.05 8.05 0 00-3.504 1.346.4.4 0 01-.453-.66 8.85 8.85 0 013.852-1.479z" fill="#00C05B"/>
  </g>
  <g filter="url(#filter8_d)">
    <path d="M13.38 10.465a.4.4 0 01-.613-.514A11.251 11.251 0 0015.4 2.7a.4.4 0 01.8 0c0 2.879-1.01 5.603-2.82 7.765z" fill="#00C05B"/>
  </g>
  <path opacity=".1" d="M25.322 14.773l.713-2.205h2.308l-1.866-1.364L27.189 9l-1.867 1.363L23.455 9l.713 2.204-1.866 1.363h2.308l.712 2.206z" fill="#AF5CF8"/>
  <path d="M24.696 14.24l.636-1.974h2.06l-1.665-1.22.635-1.974-1.666 1.22-1.667-1.22.636 1.973L22 12.265h2.06l.636 1.976zm-.616-3.059l-.38-1.179.996.729.995-.729-.38 1.18.996.729h-1.231l-.38 1.178-.38-1.178h-1.231l.995-.73z" fill="#AF5CF8"/>
  <path opacity=".1" d="M13.322 5.773l.713-2.205h2.308l-1.866-1.364L15.189 0l-1.867 1.363L11.455 0l.713 2.204-1.866 1.363h2.308l.712 2.206z" fill="#F5A623"/>
  <path d="M12.696 5.24l.636-1.974h2.06l-1.665-1.22.635-1.974-1.666 1.22L11.03.072l.635 1.973L10 3.265h2.06l.636 1.976zm-.616-3.059l-.38-1.179.996.729.995-.729-.38 1.18.996.729h-1.231l-.38 1.178-.38-1.178h-1.231l.995-.73z" fill="#F5A623"/>
  <path opacity=".1" d="M21.724 4.313a1.083 1.083 0 00-.235-1.512 1.083 1.083 0 00-1.513.223 1.083 1.083 0 00.235 1.512 1.083 1.083 0 001.513-.223z" fill="#DB210F"/>
  <path d="M21.388 4.324a1.083 1.083 0 00-.235-1.512 1.083 1.083 0 00-1.514.223 1.083 1.083 0 00.235 1.512 1.083 1.083 0 001.514-.223zm-1.563-1.152a.854.854 0 011.193-.176c.38.28.463.815.185 1.192a.854.854 0 01-1.193.175.854.854 0 01-.185-1.191z" fill="#DB210F"/>
  <path d="M6.02 4.856c-.063.154.031.28.184.343l.464.127c.125.031.278-.064.31-.19.03-.158-.063-.28-.185-.344l-.463-.126a.257.257 0 00-.31.19zM7.162 6.144l.122-.474c.031-.123-.06-.28-.185-.313a.254.254 0 00-.307.19l-.125.47c-.063.127.031.285.188.316.122.028.276-.031.307-.19zM7.315 5.231c-.059.126.032.284.188.316l.46.123c.157.035.279-.028.31-.186.063-.127-.031-.285-.184-.316l-.464-.127c-.122-.063-.278.032-.31.19zM7.13 4.196l-.122.438c-.031.158.06.316.185.344.153.032.279-.06.338-.186l.094-.442a.25.25 0 00-.185-.344c-.125-.032-.279.063-.31.19z" fill="#00C05B"/>
  <circle cx="9.417" cy="3.417" r=".417" fill="#1ABCFE"/>
  <circle cx="22.417" cy="14.417" r=".417" fill="#1ABCFE"/>
  <circle cx="17.417" cy="7.417" r=".417" fill="#AF5CF8"/>
  <circle cx="24.417" cy="16.417" r=".417" fill="#1ABCFE"/>
  <circle cx="9.417" cy="3.417" r=".417" fill="#1ABCFE"/>
  <path opacity=".1" d="M19.99 9.792c-.58 0-1.05.475-1.05 1.058 0 .584.47 1.058 1.05 1.058.579 0 1.05-.474 1.05-1.058 0-.583-.471-1.058-1.05-1.058z" fill="#1ABCFE"/>
  <path d="M19.589 9.59c-.58 0-1.05.475-1.05 1.059 0 .583.47 1.058 1.05 1.058.579 0 1.05-.475 1.05-1.058 0-.584-.471-1.058-1.05-1.058zm0 1.88a.82.82 0 01-.816-.821.82.82 0 01.816-.822.82.82 0 01.816.822.82.82 0 01-.816.822z" fill="#1ABCFE"/>
  <path opacity=".1" d="M25.19 26.282l.9-2.782H29l-2.353-1.72.898-2.78-2.355 1.719L22.836 19l.898 2.78-2.353 1.72h2.91l.899 2.782z" fill="#1ABCFE"/>
  <path d="M24.4 25.61l.803-2.49H27.8l-2.1-1.54.801-2.49-2.102 1.54-2.101-1.54.802 2.49L21 23.119h2.598l.802 2.491zm-.776-3.859l-.479-1.487 1.255.92 1.256-.92-.479 1.487 1.256.92H24.88l-.48 1.487-.479-1.487h-1.553l1.256-.92z" fill="#1ABCFE"/>
  <path d="M26.023 1.44c-.073.18.037.328.216.402l.542.148c.147.037.326-.074.363-.222.036-.184-.074-.328-.216-.402l-.542-.148a.3.3 0 00-.363.222zM27.36 2.947l.142-.555c.037-.143-.07-.328-.216-.365a.297.297 0 00-.359.222l-.147.55c-.073.148.037.333.22.37.143.032.323-.037.36-.222zM27.539 1.88c-.07.147.037.332.22.369l.538.143c.183.042.326-.032.362-.217.074-.148-.036-.333-.216-.37l-.542-.148c-.142-.073-.325.037-.362.222zM27.322.668l-.143.513c-.036.185.07.37.216.403.18.036.327-.07.396-.218l.11-.517a.294.294 0 00-.216-.403c-.147-.037-.326.074-.363.222z" fill="#F5A623"/>
  <defs>
    <filter id="filter0_d" x="3.674" y="19.884" width="2.289" height="7.085" filterUnits="userSpaceOnUse" color-interpolation-filters="sRGB">
      <feFlood flood-opacity="0" result="BackgroundImageFix"/>
      <feColorMatrix in="SourceAlpha" values="0 0 0 0 0 0 0 0 0 0 0 0 0 0 0 0 0 0 127 0"/>
      <feOffset dx="-.263" dy=".527"/>
      <feColorMatrix values="0 0 0 0 0.152941 0 0 0 0 0.152941 0 0 0 0 0.2 0 0 0 0.12 0"/>
      <feBlend in2="BackgroundImageFix" result="effect1_dropShadow"/>
      <feBlend in="SourceGraphic" in2="effect1_dropShadow" result="shape"/>
    </filter>
    <filter id="filter1_d" x="5.732" y="14.937" width="3.516" height="10.782" filterUnits="userSpaceOnUse" color-interpolation-filters="sRGB">
      <feFlood flood-opacity="0" result="BackgroundImageFix"/>
      <feColorMatrix in="SourceAlpha" values="0 0 0 0 0 0 0 0 0 0 0 0 0 0 0 0 0 0 127 0"/>
      <feOffset dx="-.263" dy=".527"/>
      <feColorMatrix values="0 0 0 0 0.152941 0 0 0 0 0.152941 0 0 0 0 0.2 0 0 0 0.12 0"/>
      <feBlend in2="BackgroundImageFix" result="effect1_dropShadow"/>
      <feBlend in="SourceGraphic" in2="effect1_dropShadow" result="shape"/>
    </filter>
    <filter id="filter2_d" x="9.571" y="11.306" width="3.316" height="13.595" filterUnits="userSpaceOnUse" color-interpolation-filters="sRGB">
      <feFlood flood-opacity="0" result="BackgroundImageFix"/>
      <feColorMatrix in="SourceAlpha" values="0 0 0 0 0 0 0 0 0 0 0 0 0 0 0 0 0 0 127 0"/>
      <feOffset dx="-.263" dy=".527"/>
      <feColorMatrix values="0 0 0 0 0.152941 0 0 0 0 0.152941 0 0 0 0 0.2 0 0 0 0.12 0"/>
      <feBlend in2="BackgroundImageFix" result="effect1_dropShadow"/>
      <feBlend in="SourceGraphic" in2="effect1_dropShadow" result="shape"/>
    </filter>
    <filter id="filter3_d" x="13.977" y="17.36" width="2.812" height="5.77" filterUnits="userSpaceOnUse" color-interpolation-filters="sRGB">
      <feFlood flood-opacity="0" result="BackgroundImageFix"/>
      <feColorMatrix in="SourceAlpha" values="0 0 0 0 0 0 0 0 0 0 0 0 0 0 0 0 0 0 127 0"/>
      <feOffset dx="-.263" dy=".527"/>
      <feColorMatrix values="0 0 0 0 0.152941 0 0 0 0 0.152941 0 0 0 0 0.2 0 0 0 0.12 0"/>
      <feBlend in2="BackgroundImageFix" result="effect1_dropShadow"/>
      <feBlend in="SourceGraphic" in2="effect1_dropShadow" result="shape"/>
    </filter>
    <filter id="filter4_d" x="7.01" y="11.793" width="3.118" height="4.192" filterUnits="userSpaceOnUse" color-interpolation-filters="sRGB">
      <feFlood flood-opacity="0" result="BackgroundImageFix"/>
      <feColorMatrix in="SourceAlpha" values="0 0 0 0 0 0 0 0 0 0 0 0 0 0 0 0 0 0 127 0"/>
      <feOffset dx="-.263" dy=".527"/>
      <feColorMatrix values="0 0 0 0 0.152941 0 0 0 0 0.152941 0 0 0 0 0.2 0 0 0 0.12 0"/>
      <feBlend in2="BackgroundImageFix" result="effect1_dropShadow"/>
      <feBlend in="SourceGraphic" in2="effect1_dropShadow" result="shape"/>
    </filter>
    <filter id="filter5_d" x=".737" y="8" width="20.267" height="20.53" filterUnits="userSpaceOnUse" color-interpolation-filters="sRGB">
      <feFlood flood-opacity="0" result="BackgroundImageFix"/>
      <feColorMatrix in="SourceAlpha" values="0 0 0 0 0 0 0 0 0 0 0 0 0 0 0 0 0 0 127 0"/>
      <feOffset dx="-.263" dy=".527"/>
      <feColorMatrix values="0 0 0 0 0.152941 0 0 0 0 0.152941 0 0 0 0 0.2 0 0 0 0.12 0"/>
      <feBlend in2="BackgroundImageFix" result="effect1_dropShadow"/>
      <feBlend in="SourceGraphic" in2="effect1_dropShadow" result="shape"/>
    </filter>
    <filter id="filter6_d" x="19.289" y="6.474" width="4.686" height="2.629" filterUnits="userSpaceOnUse" color-interpolation-filters="sRGB">
      <feFlood flood-opacity="0" result="BackgroundImageFix"/>
      <feColorMatrix in="SourceAlpha" values="0 0 0 0 0 0 0 0 0 0 0 0 0 0 0 0 0 0 127 0"/>
      <feOffset dx="-.208" dy=".417"/>
      <feColorMatrix values="0 0 0 0 0.152941 0 0 0 0 0.152941 0 0 0 0 0.2 0 0 0 0.12 0"/>
      <feBlend in2="BackgroundImageFix" result="effect1_dropShadow"/>
      <feBlend in="SourceGraphic" in2="effect1_dropShadow" result="shape"/>
    </filter>
    <filter id="filter7_d" x="16.289" y="12.874" width="4.686" height="2.629" filterUnits="userSpaceOnUse" color-interpolation-filters="sRGB">
      <feFlood flood-opacity="0" result="BackgroundImageFix"/>
      <feColorMatrix in="SourceAlpha" values="0 0 0 0 0 0 0 0 0 0 0 0 0 0 0 0 0 0 127 0"/>
      <feOffset dx="-.208" dy=".417"/>
      <feColorMatrix values="0 0 0 0 0.152941 0 0 0 0 0.152941 0 0 0 0 0.2 0 0 0 0.12 0"/>
      <feBlend in2="BackgroundImageFix" result="effect1_dropShadow"/>
      <feBlend in="SourceGraphic" in2="effect1_dropShadow" result="shape"/>
    </filter>
    <filter id="filter8_d" x="12.465" y="2.3" width="3.735" height="8.725" filterUnits="userSpaceOnUse" color-interpolation-filters="sRGB">
      <feFlood flood-opacity="0" result="BackgroundImageFix"/>
      <feColorMatrix in="SourceAlpha" values="0 0 0 0 0 0 0 0 0 0 0 0 0 0 0 0 0 0 127 0"/>
      <feOffset dx="-.208" dy=".417"/>
      <feColorMatrix values="0 0 0 0 0.152941 0 0 0 0 0.152941 0 0 0 0 0.2 0 0 0 0.12 0"/>
      <feBlend in2="BackgroundImageFix" result="effect1_dropShadow"/>
      <feBlend in="SourceGraphic" in2="effect1_dropShadow" result="shape"/>
    </filter>
  </defs>
</svg>
